Motion_kv05_j
version=1
nRows=13
nColumns=43
inDegrees=yes
endheader
time	pelvis_tilt	pelvis_list	pelvis_rotation	pelvis_tx	pelvis_ty	pelvis_tz	hip_flexion_r	hip_adduction_r	hip_rotation_r	knee_angle_r	ankle_angle_r	subtalar_angle_r	mtp_angle_r	hip_flexion_l	hip_adduction_l	hip_rotation_l	knee_angle_l	ankle_angle_l	subtalar_angle_l	mtp_angle_l	lumbar_extension	lumbar_bending	lumbar_rotation	neck_flexion	neck_lateral_bending	neck_rotation	arm_flex_r	arm_add_r	arm_rot_r	elbow_flex_r	pro_sup_r	wrist_flex_r	wrist_dev_r	hand_finger_flex_r	arm_flex_l	arm_add_l	arm_rot_l	elbow_flex_l	pro_sup_l	wrist_flex_l	wrist_dev_l	hand_finger_flex_l
      0.77750000	     -0.71091545	      8.82139441	    -89.64096421	     -0.05757141	      0.94577526	      0.30740200	     -0.36326011	     -4.73153617	     -7.64921061	     -6.12550025	     11.26891327	     13.92208861	      4.80604573	     -1.35654223	    -10.21187445	    -14.68461952	     -6.14531612	      2.12329596	     30.92909085	     18.53322363	    -28.28846641	     -0.02111510	      5.16115357	     24.75797949	      3.55369383	     -3.29963151	     72.30581946	    -25.82621256	     20.61493508	     53.06980379	    157.13950155	     -4.79752183	      0.98687382	    -34.07063109	     80.42236529	    -18.50071237	     28.55847868	     43.92152781	    146.42041248	     -9.01312702	      0.89681506	    -40.13721030
      0.78000000	     -0.71006123	      8.87667515	    -89.63473290	     -0.05764775	      0.94579793	      0.30856972	     -0.37685504	     -4.72869446	     -7.64886929	     -6.12572662	     11.26249921	     13.92430376	      4.80923191	     -1.36130606	    -10.22103712	    -14.68269236	     -6.14925769	      2.11820893	     30.92908072	     18.53607260	    -28.31087549	     -0.03938489	      5.15516463	     24.75180941	      3.55251309	     -3.28688463	     72.32962081	    -25.86826059	     20.61321692	     53.06716795	    157.14403777	     -4.79304490	      0.98433281	    -34.07000000	     80.41416263	    -18.52125855	     28.56103131	     43.89736349	    146.42508215	     -9.00461905	      0.89755392	    -40.13520026
      0.78250000	     -0.67918492	      8.96936529	    -89.57087823	     -0.05708562	      0.94587067	      0.30959683	     -0.43727865	     -4.80155220	     -7.66362462	     -5.93622664	     11.01829429	     13.99430288	      4.93736755	     -1.26638289	    -10.16715466	    -14.58443069	     -6.20562103	      1.91231336	     30.95044526	     18.65202826	    -28.28019396	     -0.02038115	      5.18866806	     24.61371206	      3.56771270	     -2.77738724	     72.41575381	    -26.22277924	     21.03123741	     53.14843432	    157.31741056	     -4.57966762	      0.77106740	    -34.03337976	     80.60285013	    -18.39205018	     28.82749588	     43.57138187	    146.60657251	     -8.71393267	      0.78531021	    -40.06133682
      0.78500000	     -0.67947543	      9.02124478	    -89.57258686	     -0.05717144	      0.94587931	      0.31082935	     -0.45206781	     -4.79476550	     -7.66468378	     -5.94846831	     11.01321683	     13.99526222	      4.94082201	     -1.28047013	    -10.17846836	    -14.58085160	     -6.21486634	      1.90867339	     30.94970437	     18.65522940	    -28.29718827	     -0.03718752	      5.17601833	     24.61292621	      3.56935847	     -2.77117161	     72.42856259	    -26.24534226	     21.02588023	     53.15131260	    157.32017046	     -4.57741601	      0.77017875	    -34.03341837	     80.57986191	    -18.41674440	     28.82947753	     43.54015771	    146.60929863	     -8.70514114	      0.78765013	    -40.05930654
      0.78750000	     -0.67823652	      9.06286817	    -89.57998996	     -0.05714857	      0.94590643	      0.31250207	     -0.48968204	     -4.80545028	     -7.67203634	     -6.00367537	     10.96340674	     14.00511296	      4.97146245	     -1.32560000	    -10.18689040	    -14.55090899	     -6.26532647	      1.86410247	     30.95203913	     18.68304600	    -28.26917899	     -0.02774317	      5.14732125	     24.60611025	      3.58046070	     -2.68756960	     72.35680168	    -26.26717463	     21.13865494	     53.24151399	    157.35005281	     -4.54145202	      0.71358540	    -34.02838848	     80.52263863	    -18.48245176	     28.87253581	     43.39513687	    146.63586437	     -8.63217992	      0.77523440	    -40.04001450
      0.79000000	     -0.67771672	      9.11523692	    -89.57645903	     -0.05723189	      0.94593402	      0.31367401	     -0.50079927	     -4.80132551	     -7.67272007	     -6.01194464	     10.95776915	     14.00705200	      4.97514750	     -1.33339377	    -10.19864552	    -14.54918078	     -6.26835298	      1.85902623	     30.95188303	     18.68634820	    -28.29238154	     -0.04550342	      5.13393311	     24.59970783	      3.57796773	     -2.67501304	     72.37290327	    -26.30942550	     21.14016651	     53.24417361	    157.35368838	     -4.53676702	      0.70969582	    -34.02750514	     80.50677435	    -18.50504496	     28.87628615	     43.37046612	    146.63867280	     -8.62214586	      0.77450953	    -40.03722830
      0.79250000	     -0.67605135	      9.17551812	    -89.49124872	     -0.05685845	      0.94600787	      0.31484043	     -0.49771244	     -4.83200598	     -7.88636457	     -6.05086410	     10.72807949	     14.11478766	      5.30101619	     -1.31275489	    -10.19241386	    -14.40691179	     -6.24669448	      1.57354959	     31.02229906	     18.97280320	    -28.26894905	      0.00410476	      5.13629618	     24.39668384	      3.62371348	     -1.92269701	     72.40888239	    -26.58433260	     21.47395658	     53.37343115	    157.54386949	     -4.16792041	      0.52204817	    -33.96202717	     80.73184272	    -18.42599264	     29.22679601	     42.94349870	    146.79009884	     -8.10709239	      0.49150306	    -39.89192125
      0.79500000	     -0.67782402	      9.22596999	    -89.49045044	     -0.05689353	      0.94600237	      0.31605082	     -0.51275033	     -4.83040590	     -7.88370404	     -6.06363580	     10.72558444	     14.11769046	      5.30542275	     -1.32469366	    -10.20257506	    -14.40701023	     -6.25534478	      1.57140927	     31.02145759	     18.97681948	    -28.28878349	     -0.00678985	      5.11817151	     24.39418648	      3.62063055	     -1.91972949	     72.41550914	    -26.62122974	     21.47101225	     53.38330570	    157.54613760	     -4.16713139	      0.52022208	    -33.96265322	     80.71277681	    -18.45472020	     29.22504198	     42.92230905	    146.79030030	     -8.10185516	      0.49248140	    -39.89094535
      0.79750000	     -0.67428559	      9.25660114	    -89.45386465	     -0.05675014	      0.94603222	      0.31774094	     -0.55939287	     -4.85190615	     -7.86654609	     -6.14260055	     10.69567867	     14.14314853	      5.34560403	     -1.36343714	    -10.20353806	    -14.40130811	     -6.31704692	      1.53580543	     31.02794246	     19.01289211	    -28.27675226	      0.01712795	      5.06724085	     24.37804152	      3.58939669	     -1.85760097	     72.30824633	    -26.71101974	     21.61066994	     53.56913966	    157.57046070	     -4.15033659	      0.45384377	    -33.96471753	     80.62810526	    -18.51937474	     29.26628546	     42.85593181	    146.79534276	     -8.04880684	      0.45990789	    -39.87722714
      0.80000000	     -0.67468368	      9.30772945	    -89.45088034	     -0.05680945	      0.94606030	      0.31889938	     -0.57063338	     -4.84826110	     -7.86704849	     -6.15165074	     10.69262716	     14.14569824	      5.35016990	     -1.36956792	    -10.21431889	    -14.40016511	     -6.32184638	      1.53143861	     31.02910060	     19.01693657	    -28.30374421	      0.00115734	      5.05500686	     24.37208878	      3.58375511	     -1.84739488	     72.31791335	    -26.75830023	     21.61078710	     53.57411235	    157.57304984	     -4.14709031	      0.45154989	    -33.96434853	     80.60761599	    -18.54368216	     29.26996064	     42.83717663	    146.79570203	     -8.04038523	      0.45756414	    -39.87479209
      0.80250000	     -0.67565647	      9.34839169	    -89.36733106	     -0.05632614	      0.94613490	      0.32034652	     -0.60567897	     -4.88629970	     -7.92239741	     -6.21030373	     10.61472155	     14.20967539	      5.48299172	     -1.36328468	    -10.20365128	    -14.35667786	     -6.37522454	      1.39893496	     31.09264047	     19.13467472	    -28.30310206	      0.04626361	      5.09330677	     24.24610633	      3.48392374	     -1.51366205	     72.22823393	    -27.11999229	     21.86378519	     53.85786136	    157.63826445	     -4.04543649	      0.33475509	    -33.94769116	     80.59609726	    -18.51751611	     29.46919952	     42.83276130	    146.80207425	     -7.84271315	      0.27624742	    -39.80812008
      0.80500000	     -0.67951177	      9.40030193	    -89.37584436	     -0.05641440	      0.94610049	      0.32157367	     -0.61977285	     -4.88134079	     -7.92557683	     -6.22260937	     10.60907848	     14.21318840	      5.48991902	     -1.37752512	    -10.21927828	    -14.35127488	     -6.38780766	      1.39151030	     31.09514963	     19.14104628	    -28.32196971	      0.03047800	      5.07823168	     24.24579621	      3.48571048	     -1.50119898	     72.22871760	    -27.15163531	     21.86185636	     53.86184550	    157.64028297	     -4.04019077	      0.33395385	    -33.94669165	     80.56176925	    -18.55611309	     29.47441162	     42.79061687	    146.80104595	     -7.82659228	      0.27571282	    -39.80296939
      0.80750000	     -0.67901707	      9.45136492	    -89.37264811	     -0.05643054	      0.94622854	      0.32276083	     -0.62922146	     -4.88200961	     -7.92562282	     -6.22886314	     10.60779625	     14.21386739	      5.49111915	     -1.38601997	    -10.22231559	    -14.34974716	     -6.39392783	      1.38963296	     31.09575460	     19.14213226	    -28.34747538	      0.02781999	      5.08042310	     24.24385727	      3.48540676	     -1.49802213	     72.22841754	    -27.15641432	     21.86366125	     53.86346687	    157.64071993	     -4.03901502	      0.33286415	    -33.94637750	     80.55547958	    -18.56183919	     29.47645492	     42.78305413	    146.80100009	     -7.82316089	      0.27510125	    -39.80181479
